<svg width="40" height="40" viewBox="0 0 40 40" fill="none" xmlns="http://www.w3.org/2000/svg">
<path fill-rule="evenodd" clip-rule="evenodd" d="M19.1668 6.67018C11.3447 6.67018 5.00368 13.0112 5.00368 20.8333C5.00368 28.6554 11.3447 34.9965 19.1668 34.9965C26.9889 34.9965 33.33 28.6554 33.33 20.8333C33.33 13.0112 26.9889 6.67018 19.1668 6.67018ZM3.3335 20.8333C3.3335 12.0888 10.4223 5 19.1668 5C27.9113 5 35.0002 12.0888 35.0002 20.8333C35.0002 29.5778 27.9113 36.6667 19.1668 36.6667C10.4223 36.6667 3.3335 29.5778 3.3335 20.8333ZM19.1668 10.044C19.628 10.044 20.0019 10.4178 20.0019 10.879V12.9507C21.8845 13.2577 23.434 14.5856 23.8394 16.373C23.9414 16.8227 23.6594 17.2701 23.2097 17.3721C22.7599 17.4741 22.3126 17.1922 22.2105 16.7424C21.9397 15.548 20.7293 14.5534 19.1668 14.5534C17.3772 14.5534 16.077 15.842 16.077 17.2758C16.077 18.7097 17.3772 19.9982 19.1668 19.9982C21.7197 19.9982 23.9269 21.883 23.9269 24.3908C23.9269 26.6201 22.1827 28.3571 20.0019 28.7154V30.7709C20.0019 31.2321 19.628 31.606 19.1668 31.606C18.7056 31.606 18.3317 31.2321 18.3317 30.7709V28.715C16.4061 28.3967 14.8231 26.9979 14.4716 25.148C14.3855 24.6949 14.683 24.2578 15.1361 24.1717C15.5892 24.0856 16.0263 24.3831 16.1124 24.8362C16.3459 26.065 17.5803 27.1132 19.1668 27.1132C20.9564 27.1132 22.2567 25.8247 22.2567 24.3908C22.2567 22.957 20.9564 21.6684 19.1668 21.6684C16.614 21.6684 14.4068 19.7836 14.4068 17.2758C14.4068 15.0465 16.151 13.3095 18.3317 12.9513V10.879C18.3317 10.4178 18.7056 10.044 19.1668 10.044Z" fill="#121E6C"/>
</svg>
