<svg width="40" height="40" viewBox="0 0 40 40" fill="none" xmlns="http://www.w3.org/2000/svg">
<path fill-rule="evenodd" clip-rule="evenodd" d="M15.9977 8.38438C16.1813 8.80645 15.9879 9.29737 15.5658 9.48088C14.8493 9.7924 14.1786 10.1665 13.5368 10.6048C13.1568 10.8644 12.6382 10.7667 12.3787 10.3866C12.1191 10.0066 12.2168 9.48804 12.5969 9.22849C13.3218 8.73343 14.0844 8.30758 14.9012 7.95243C15.3233 7.76892 15.8142 7.96231 15.9977 8.38438Z" fill="#121E6C"/>
<path fill-rule="evenodd" clip-rule="evenodd" d="M8.1105 17.1125C8.56385 17.1918 8.86705 17.6236 8.78771 18.077C8.67877 18.6995 8.61685 19.3514 8.61685 20.0167C8.61685 20.6945 8.66415 21.3288 8.77105 21.9397C8.85038 22.393 8.54719 22.8248 8.09384 22.9042C7.64049 22.9835 7.20866 22.6803 7.12933 22.227C7.00289 21.5045 6.95019 20.7721 6.95019 20.0167C6.95019 19.2486 7.02161 18.5005 7.14599 17.7897C7.22533 17.3363 7.65716 17.0331 8.1105 17.1125Z" fill="#121E6C"/>
<path fill-rule="evenodd" clip-rule="evenodd" d="M12.3698 29.6188C12.6356 29.243 13.1557 29.1539 13.5314 29.4196C14.1616 29.8654 14.8422 30.2374 15.5765 30.5499C16 30.7301 16.1972 31.2195 16.017 31.643C15.8368 32.0664 15.3474 32.2637 14.9239 32.0834C14.0915 31.7292 13.3054 31.3012 12.569 30.7803C12.1932 30.5146 12.1041 29.9945 12.3698 29.6188Z" fill="#121E6C"/>
<path fill-rule="evenodd" clip-rule="evenodd" d="M27.655 29.6634C27.9146 30.0434 27.8169 30.5619 27.4368 30.8215C26.7075 31.3196 25.9276 31.7446 25.1158 32.0975C24.6937 32.2811 24.2028 32.0877 24.0193 31.6656C23.8358 31.2435 24.0292 30.7526 24.4513 30.5691C25.1727 30.2554 25.8596 29.8804 26.4969 29.4452C26.8769 29.1856 27.3955 29.2833 27.655 29.6634Z" fill="#121E6C"/>
<path fill-rule="evenodd" clip-rule="evenodd" d="M31.9599 17.0952C32.4136 17.0178 32.8442 17.3227 32.9216 17.7764C33.0453 18.501 33.1169 19.2481 33.1169 20.0167C33.1169 20.7853 33.0453 21.5114 32.941 22.2069C32.8727 22.6621 32.4484 22.9757 31.9932 22.9074C31.5381 22.8392 31.2245 22.4149 31.2927 21.9597C31.3884 21.3219 31.4502 20.6814 31.4502 20.0167C31.4502 19.3519 31.3884 18.699 31.2787 18.0569C31.2013 17.6032 31.5063 17.1727 31.9599 17.0952Z" fill="#121E6C"/>
<path fill-rule="evenodd" clip-rule="evenodd" d="M23.98 8.38185C24.1557 7.95647 24.6429 7.75407 25.0683 7.92977C25.8903 8.26926 26.6743 8.69717 27.4035 9.19515C27.7836 9.45471 27.8812 9.97323 27.6217 10.3533C27.3621 10.7334 26.8436 10.831 26.4636 10.5715C25.8261 10.1361 25.1435 9.76405 24.4321 9.47021C24.0067 9.29451 23.8043 8.80723 23.98 8.38185Z" fill="#121E6C"/>
<path fill-rule="evenodd" clip-rule="evenodd" d="M20.0335 13.4167C16.3884 13.4167 13.4335 16.3716 13.4335 20.0167C13.4335 23.6617 16.3884 26.6167 20.0335 26.6167C23.6786 26.6167 26.6335 23.6617 26.6335 20.0167C26.6335 16.3716 23.6786 13.4167 20.0335 13.4167ZM11.7669 20.0167C11.7669 15.4511 15.468 11.75 20.0335 11.75C24.5991 11.75 28.3002 15.4511 28.3002 20.0167C28.3002 24.5822 24.5991 28.2833 20.0335 28.2833C15.468 28.2833 11.7669 24.5822 11.7669 20.0167Z" fill="#121E6C"/>
<path fill-rule="evenodd" clip-rule="evenodd" d="M17.0637 4.34743C17.0636 4.34779 17.0638 4.34707 17.0637 4.34743L16.0643 8.91158C15.9658 9.36116 15.5216 9.64581 15.072 9.54737C14.6224 9.44892 14.3377 9.00465 14.4362 8.55506L15.4367 3.98588C15.7214 2.70485 16.8427 1.79999 18.1669 1.79999H21.8669C23.1701 1.79999 24.3115 2.70068 24.597 3.98588L25.5973 8.52048C25.6965 8.96991 25.4125 9.41462 24.9631 9.51376C24.5136 9.6129 24.0689 9.32893 23.9698 8.8795L22.9701 4.34743C22.97 4.34725 22.9701 4.34761 22.9701 4.34743C22.8555 3.83291 22.3968 3.46665 21.8669 3.46665H18.1669C17.6248 3.46665 17.1794 3.82904 17.0637 4.34743Z" fill="#121E6C"/>
<path fill-rule="evenodd" clip-rule="evenodd" d="M24.9666 30.5037C25.4156 30.6047 25.6976 31.0506 25.5966 31.4997L24.5804 36.0141C24.5803 36.0146 24.5805 36.0136 24.5804 36.0141C24.2952 37.2944 23.1739 38.2 21.8502 38.2H18.1502C16.847 38.2 15.7057 37.2993 15.4201 36.0141L15.4193 36.0106L14.436 31.4939C14.3381 31.0442 14.6233 30.6003 15.073 30.5024C15.5227 30.4045 15.9666 30.6897 16.0645 31.1394L17.0474 35.6541C17.1624 36.1681 17.6206 36.5333 18.1502 36.5333H21.8502C22.3927 36.5333 22.8381 36.1715 22.9534 35.6525L22.9539 35.6503L23.9706 31.1337C24.0716 30.6847 24.5176 30.4026 24.9666 30.5037Z" fill="#121E6C"/>
<path fill-rule="evenodd" clip-rule="evenodd" d="M5.66101 8.64038C6.36105 7.51152 7.74751 7.07075 8.96955 7.51727L8.97193 7.51813L13.3553 9.1348C13.7871 9.29406 14.008 9.77321 13.8487 10.205C13.6895 10.6368 13.2103 10.8578 12.7785 10.6985L8.39757 9.08271C8.39723 9.08258 8.39791 9.08283 8.39757 9.08271C7.8885 8.89722 7.34361 9.08735 7.07609 9.52091L7.07001 9.53076L5.08161 12.6552C4.80243 13.0833 4.86104 13.665 5.2388 14.0434C5.23857 14.0432 5.23903 14.0436 5.2388 14.0434L8.55466 17.3426C8.88092 17.6672 8.88225 18.1948 8.55763 18.5211C8.23302 18.8473 7.70538 18.8487 7.37912 18.5241L4.06246 15.2241L4.06097 15.2226C3.14052 14.3021 2.96535 12.8535 3.68279 11.749L5.66101 8.64038Z" fill="#121E6C"/>
<path fill-rule="evenodd" clip-rule="evenodd" d="M31.514 21.4911C31.8411 21.1673 32.3687 21.17 32.6925 21.4971L35.9395 24.7774C35.94 24.7779 35.9406 24.7785 35.9411 24.779C36.8601 25.6995 37.0347 27.1471 36.3177 28.251L34.3395 31.3596C33.6398 32.4879 32.2544 32.9288 31.0328 32.4834C31.0322 32.4832 31.0315 32.4829 31.0309 32.4827L26.6845 30.9174C26.2515 30.7614 26.0269 30.284 26.1829 29.8509C26.3388 29.4179 26.8163 29.1933 27.2493 29.3493L31.5993 30.916L31.6029 30.9173C32.1122 31.1034 32.6567 30.9129 32.9244 30.4791L32.9304 30.4692L34.9188 27.3447C35.1982 26.9164 35.1393 26.3343 34.761 25.9559L34.758 25.9529L31.508 22.6696C31.1842 22.3425 31.1869 21.8148 31.514 21.4911Z" fill="#121E6C"/>
<path fill-rule="evenodd" clip-rule="evenodd" d="M32.9244 9.53758C32.6567 9.10372 32.1123 8.91326 31.6029 9.09938L31.601 9.10008L27.2343 10.6834C26.8016 10.8403 26.3237 10.6167 26.1668 10.1841C26.0099 9.75138 26.2335 9.27345 26.6662 9.11657L31.0309 7.53393C31.0306 7.53406 31.0312 7.53381 31.0309 7.53393C32.2527 7.08805 33.6396 7.52851 34.3394 8.65705L36.3177 11.7657C37.0347 12.8695 36.8601 14.3172 35.9411 15.2377C35.9405 15.2382 35.94 15.2387 35.9395 15.2392L32.6925 18.5196C32.3687 18.8467 31.8411 18.8493 31.514 18.5256C31.1869 18.2018 31.1842 17.6742 31.508 17.3471L34.758 14.0637L34.761 14.0607C35.1393 13.6824 35.1982 13.1002 34.9189 12.6719L34.9138 12.6641L32.9244 9.53758Z" fill="#121E6C"/>
<path fill-rule="evenodd" clip-rule="evenodd" d="M8.53948 21.4774C8.86492 21.8028 8.86492 22.3305 8.53948 22.6559L5.23948 25.9559C4.86111 26.3343 4.80222 26.9164 5.08157 27.3448L5.08666 27.3526L7.07616 30.479C7.34386 30.9129 7.8882 31.1034 8.39757 30.9173L12.7635 29.3175C13.1957 29.1592 13.6743 29.3811 13.8327 29.8133C13.991 30.2454 13.7691 30.7241 13.3369 30.8825L8.97026 32.4825C7.74822 32.929 6.36104 32.4884 5.66101 31.3596L3.68279 28.251C2.96535 27.1465 3.14052 25.6979 4.06097 24.7774L7.36097 21.4774C7.68641 21.152 8.21405 21.152 8.53948 21.4774Z" fill="#121E6C"/>
</svg>
