<svg width="256" height="256" viewBox="0 0 256 256" fill="none" xmlns="http://www.w3.org/2000/svg">
<rect width="256" height="256" fill="url(#paint0_linear_1059_7100)"/>
<path d="M93.0668 139.3H137.202C136.141 150.717 126.651 159.681 115.132 159.681C103.614 159.681 94.1262 150.717 93.0649 139.3H93.0668ZM61.5789 114.771V159.58C72.8191 158.502 81.651 148.866 81.651 137.174C81.651 125.483 72.8191 115.85 61.5789 114.773V114.771ZM115.134 114.669C103.618 114.669 94.1281 123.637 93.0668 135.055H137.202C136.141 123.637 126.651 114.669 115.132 114.669H115.134ZM39.2871 131.024V159.683H57.2647V96.3169H39.2871V131.024ZM199.522 96.3169V159.681H217.5V96.3169H199.522ZM175.265 137.176C175.265 138.599 175.401 139.988 175.651 141.338C177.456 151.081 185.464 158.632 195.339 159.578V114.771C184.098 115.848 175.267 125.484 175.267 137.176H175.265ZM146.293 159.681H164.271V96.3169H146.293V159.681Z" fill="white"/>
<defs>
<linearGradient id="paint0_linear_1059_7100" x1="126.941" y1="4.49552e-05" x2="126.941" y2="256" gradientUnits="userSpaceOnUse">
<stop stop-color="#EE424E"/>
<stop offset="0.8" stop-color="#121E6C"/>
</linearGradient>
</defs>
</svg>
