<svg width="76" height="28" viewBox="0 0 76 28" fill="none" xmlns="http://www.w3.org/2000/svg">
<path d="M23.1656 18.7552H41.7391C41.2925 23.5602 37.299 27.3325 32.4516 27.3325C27.6042 27.3325 23.6114 23.5602 23.1648 18.7552H23.1656ZM9.91443 8.43266V27.2899C14.6447 26.8364 18.3614 22.7812 18.3614 17.8609C18.3614 12.9406 14.6447 8.88693 9.91443 8.43345V8.43266ZM32.4524 8.39C27.6057 8.39 23.6122 12.164 23.1656 16.9689H41.7391C41.2925 12.164 37.299 8.39 32.4516 8.39H32.4524ZM0.533325 15.2727V27.3333H8.09891V0.666668H0.533325V15.2727ZM67.9655 0.666668V27.3325H75.5311V0.666668H67.9655ZM57.7572 17.8617C57.7572 18.4605 57.8146 19.0451 57.92 19.6132C58.6795 23.7134 62.0495 26.8909 66.205 27.2891V8.43266C61.4748 8.88614 57.758 12.9414 57.758 17.8617H57.7572ZM45.5652 27.3325H53.1308V0.666668H45.5652V27.3325Z" fill="url(#paint0_linear_1370_210)"/>
<defs>
<linearGradient id="paint0_linear_1370_210" x1="75.5311" y1="14" x2="0.533323" y2="14" gradientUnits="userSpaceOnUse">
<stop offset="0.138614" stop-color="#EE424E"/>
<stop offset="0.833333" stop-color="#121E6C"/>
</linearGradient>
</defs>
</svg>
